<svg height="64" viewBox="0 0 64 64" width="64" xmlns="http://www.w3.org/2000/svg"><ellipse cx="53.749" cy="32.969" fill="#89664c" rx="8.251" ry="8.231"/><ellipse cx="53.749" cy="32.969" fill="#ffc5d3" rx="5.372" ry="5.36"/><ellipse cx="10.25" cy="32.969" fill="#89664c" rx="8.25" ry="8.231"/><ellipse cx="10.25" cy="32.969" fill="#ffc5d3" rx="5.372" ry="5.36"/><path d="m43.375 10.781a24.032 24.032 0 0 1 1.887-.908c-3.238-1.138-6.047-1.803-8.478-2.105 1.278-.962 2.133-1.329 2.133-1.329-20.417-2.878-30.137 8.956-30.137 19.457l46.438.002c-.697-7.312-4.78-12.316-11.843-15.117z" fill="#89664c"/><path d="m55.324 27.568c0-9.707-10.443-17.574-23.325-17.574s-23.324 7.867-23.324 17.574c0 2.271.592 4.436 1.633 6.428-1.041 1.994-1.633 4.156-1.633 6.43 0 9.706 10.442 17.574 23.324 17.574s23.325-7.868 23.325-17.574c0-2.271-.592-4.436-1.633-6.43 1.041-1.992 1.633-4.156 1.633-6.428z" fill="#89664c"/><path d="m52.021 28.205c0-16.934-20.022-6.146-20.022-6.146s-20.021-10.788-20.021 6.146c0 4.738 2.918 8.962 7.474 11.719-1.329 1.657-2.106 3.592-2.106 5.666 0 6.082 6.562 11.01 14.654 11.01s14.653-4.928 14.653-11.01c0-2.074-.777-4.009-2.105-5.666 4.556-2.757 7.473-6.981 7.473-11.719z" fill="#e0ac7e"/><g fill="#3b302a"><path d="m35.146 38.746c0 1.138-.447 2.057-1 2.057-.554 0-1-.919-1-2.057 0-1.133.446-2.059 1-2.059.553.001 1 .926 1 2.059zm-4.292 0c0 1.138-.447 2.057-1 2.057-.554 0-1-.919-1-2.057 0-1.133.446-2.059 1-2.059.553.001 1 .926 1 2.059z"/><ellipse cx="40.684" cy="31.746" rx="3.5" ry="4.499"/><ellipse cx="23.319" cy="31.746" rx="3.5" ry="4.499"/><path d="m41.844 44.497c1.429 1.215-2.943 6.941-9.844 6.977-6.901-.037-11.271-5.763-9.845-6.977.386-.329 5.154.942 9.844.942 4.689.001 9.459-1.27 9.845-.942z"/></g></svg>