<svg height="64" viewBox="0 0 64 64" width="64" xmlns="http://www.w3.org/2000/svg"><circle cx="32" cy="32" fill="#ffdd67" r="30"/><circle cx="52.811" cy="37.137" fill="#ff717f" r="8"/><circle cx="11.189" cy="37.137" fill="#ff717f" r="8"/><path d="m54.645 20.627a14.232 14.232 0 0 0 -10.973-5.115c-.588.01-.721-2.18-.004-2.191a16.426 16.426 0 0 1 12.66 5.904c.451.554-1.314 1.859-1.683 1.402zm-34.319-5.266a14.24 14.24 0 0 0 -10.973 5.115c-.369.461-2.133-.848-1.682-1.402a16.426 16.426 0 0 1 12.66-5.904c.718.012.583 2.203-.005 2.191z" fill="#917524"/><circle cx="32" cy="49.471" fill="#664e27" r="4.5"/><path d="m29.5 29.137a9 9 0 0 1 -18 0c0-4.967 4.029-9 9-9 4.969 0 9 4.033 9 9z" fill="#fff"/><circle cx="20.5" cy="29.137" fill="#664e27" r="4.5"/><path d="m52.5 29.137a9 9 0 0 1 -18 0c0-4.967 4.029-9 9-9 4.969 0 9 4.033 9 9z" fill="#fff"/><circle cx="43.5" cy="29.137" fill="#664e27" r="4.5"/></svg>